name rise44.8762peak52.3436fall86.788.mot
datacolumns 19
datarows 23
range 22.49158500000000 22.52824700000000
endheader
time	ground_force1_vx	ground_force1_vy	ground_force1_vz	ground_force1_px	ground_force1_py	ground_force1_pz	ground_force2_vx	ground_force2_vy	ground_force2_vz	ground_force2_px	ground_force2_py	ground_force2_pz	ground_torque1_x	ground_torque1_y	ground_torque1_z	ground_torque2_x	ground_torque2_y	ground_torque2_z	
22.49158500000000	-5.98173300000000	40.58828100000000	-13.24402000000000	0.28358600000000	0.00000000000000	0.07273000000000	-63.44615500000000	799.13954000000001	-52.44626000000000	0.09300100000000	0.00000000000000	-0.09558000000000	0.00000000000000	-8.53150400000000	0.00000000000000	0.00000000000000	-18.37098900000000	0.00000000000000	
22.49324500000000	-6.41220700000000	47.47284800000000	-14.84027200000000	0.28950100000000	0.00000000000000	0.07402500000000	-64.35740699999999	796.11754599999995	-51.84642900000000	0.09207200000000	0.00000000000000	-0.09548900000000	0.00000000000000	-9.66926000000000	0.00000000000000	0.00000000000000	-18.39292100000000	0.00000000000000	
22.49492000000000	-6.68956800000000	54.42350500000000	-16.27368400000000	0.29498800000000	0.00000000000000	0.07521000000000	-65.27966499999999	792.96658900000000	-51.22413200000000	0.09114700000000	0.00000000000000	-0.09539500000000	0.00000000000000	-10.72135100000000	0.00000000000000	0.00000000000000	-18.41766800000000	0.00000000000000	
22.49657800000000	-6.79722800000000	61.35113700000000	-17.50994500000000	0.30010400000000	0.00000000000000	0.07630000000000	-66.21139800000000	789.68333900000005	-50.57935500000000	0.09022800000000	0.00000000000000	-0.09529700000000	0.00000000000000	-11.66266000000000	0.00000000000000	0.00000000000000	-18.44499300000000	0.00000000000000	
22.49824700000000	-6.72639900000000	68.18985400000000	-18.52704200000000	0.30489300000000	0.00000000000000	0.07730700000000	-67.15096800000001	786.26443200000006	-49.91212100000000	0.08931400000000	0.00000000000000	-0.09519500000000	0.00000000000000	-12.47581300000000	0.00000000000000	0.00000000000000	-18.47463400000000	0.00000000000000	
22.49991100000000	-6.47583700000000	74.89893800000000	-19.31532800000000	0.30939100000000	0.00000000000000	0.07824200000000	-68.09663000000000	782.70648400000005	-49.22248900000000	0.08840800000000	0.00000000000000	-0.09509000000000	0.00000000000000	-13.15149400000000	0.00000000000000	0.00000000000000	-18.50630400000000	0.00000000000000	
22.50158000000000	-6.05101200000000	81.46239799999999	-19.87657600000000	0.31362900000000	0.00000000000000	0.07911400000000	-69.04653600000000	779.00609699999995	-48.51055600000000	0.08751000000000	0.00000000000000	-0.09498100000000	0.00000000000000	-13.68804900000000	0.00000000000000	0.00000000000000	-18.53969600000000	0.00000000000000	
22.50324600000000	-5.46287500000000	87.88656100000000	-20.22224600000000	0.31763100000000	0.00000000000000	0.07992900000000	-69.99874100000000	775.15987900000005	-47.77646100000000	0.08662100000000	0.00000000000000	-0.09486800000000	0.00000000000000	-14.09052600000000	0.00000000000000	0.00000000000000	-18.57447900000000	0.00000000000000	
22.50492200000000	-4.72637900000000	94.19623199999999	-20.37126400000000	0.32142100000000	0.00000000000000	0.08069500000000	-70.95120300000001	771.16445399999998	-47.02038500000000	0.08574100000000	0.00000000000000	-0.09475100000000	0.00000000000000	-14.36931900000000	0.00000000000000	0.00000000000000	-18.61030300000000	0.00000000000000	
22.50658100000000	-3.85894000000000	100.43000300000000	-20.34757200000000	0.32501400000000	0.00000000000000	0.08141500000000	-71.90178899999999	767.01647600000001	-46.24255500000000	0.08487200000000	0.00000000000000	-0.09463000000000	0.00000000000000	-14.53860600000000	0.00000000000000	0.00000000000000	-18.64679600000000	0.00000000000000	
22.50824600000000	-2.87895000000000	106.63523100000000	-20.17768600000000	0.32842800000000	0.00000000000000	0.08209500000000	-72.84828400000001	762.71264699999995	-45.44324700000000	0.08401400000000	0.00000000000000	-0.09450500000000	0.00000000000000	-14.61474400000000	0.00000000000000	0.00000000000000	-18.68356800000000	0.00000000000000	
22.50991400000000	-1.80447500000000	112.86316800000000	-19.88847200000000	0.33167400000000	0.00000000000000	0.08273800000000	-73.78839000000001	758.24972800000000	-44.62278100000000	0.08316700000000	0.00000000000000	-0.09437700000000	0.00000000000000	-14.61475000000000	0.00000000000000	0.00000000000000	-18.72021300000000	0.00000000000000	
22.51157800000000	-0.65219700000000	119.16459100000000	-19.50526700000000	0.33476500000000	0.00000000000000	0.08334800000000	-74.71973800000001	753.62456299999997	-43.78153200000000	0.08233300000000	0.00000000000000	-0.09424400000000	0.00000000000000	-14.55499000000000	0.00000000000000	0.00000000000000	-18.75630600000000	0.00000000000000	
22.51324700000000	0.56335300000000	125.58619500000000	-19.05044800000000	0.33770900000000	0.00000000000000	0.08392800000000	-75.63988999999999	748.83408899999995	-42.91992300000000	0.08151300000000	0.00000000000000	-0.09410800000000	0.00000000000000	-14.45014300000000	0.00000000000000	0.00000000000000	-18.79141000000000	0.00000000000000	
22.51491100000000	1.83026800000000	132.16789299999999	-18.54246000000000	0.34051600000000	0.00000000000000	0.08447900000000	-76.54634900000001	743.87536100000000	-42.03843100000000	0.08070600000000	0.00000000000000	-0.09396700000000	0.00000000000000	-14.31246200000000	0.00000000000000	0.00000000000000	-18.82507300000000	0.00000000000000	
22.51657800000000	3.13945200000000	138.94107099999999	-17.99532300000000	0.34319200000000	0.00000000000000	0.08500600000000	-77.43656300000001	738.74556500000006	-41.13758400000000	0.07991300000000	0.00000000000000	-0.09382300000000	0.00000000000000	-14.15136000000000	0.00000000000000	0.00000000000000	-18.85683300000000	0.00000000000000	
22.51824700000000	4.48456500000000	145.92774700000001	-17.41854600000000	0.34574300000000	0.00000000000000	0.08550800000000	-78.30793700000000	733.44204200000001	-40.21796700000000	0.07913600000000	0.00000000000000	-0.09367400000000	0.00000000000000	-13.97327400000000	0.00000000000000	0.00000000000000	-18.88621600000000	0.00000000000000	
22.51991300000000	5.86177100000000	153.14055200000001	-16.81739700000000	0.34817600000000	0.00000000000000	0.08598800000000	-79.15783700000000	727.96230400000002	-39.28021500000000	0.07837400000000	0.00000000000000	-0.09352200000000	0.00000000000000	-13.78178600000000	0.00000000000000	0.00000000000000	-18.91274100000000	0.00000000000000	
22.52158100000000	7.26934300000000	160.58336700000001	-16.19343800000000	0.35049500000000	0.00000000000000	0.08644800000000	-79.98359800000000	722.30405900000005	-38.32501900000000	0.07762800000000	0.00000000000000	-0.09336600000000	0.00000000000000	-13.57793100000000	0.00000000000000	0.00000000000000	-18.93592000000000	0.00000000000000	
22.52324400000000	8.70718000000000	168.25245400000000	-15.54523500000000	0.35270500000000	0.00000000000000	0.08688900000000	-80.78253400000000	716.46522100000004	-37.35312200000000	0.07689900000000	0.00000000000000	-0.09320600000000	0.00000000000000	-13.36065200000000	0.00000000000000	0.00000000000000	-18.95526000000000	0.00000000000000	
22.52490800000000	10.17629600000000	176.13790800000001	-14.86915900000000	0.35480900000000	0.00000000000000	0.08731100000000	-81.55194800000000	710.44393700000001	-36.36532000000000	0.07618700000000	0.00000000000000	-0.09304100000000	0.00000000000000	-13.12732200000000	0.00000000000000	0.00000000000000	-18.97026600000000	0.00000000000000	
22.52658100000000	11.67831500000000	184.22525200000001	-14.16020600000000	0.35680900000000	0.00000000000000	0.08771700000000	-82.28913600000000	704.23860200000001	-35.36246300000000	0.07549200000000	0.00000000000000	-0.09287300000000	0.00000000000000	-12.87429800000000	0.00000000000000	0.00000000000000	-18.98044100000000	0.00000000000000	
22.52824700000000	13.21500800000000	192.49704199999999	-13.41276400000000	0.35871100000000	0.00000000000000	0.08810700000000	-82.99139800000000	697.84787100000005	-34.34545000000000	0.07481400000000	0.00000000000000	-0.09270100000000	0.00000000000000	-12.59745000000000	0.00000000000000	0.00000000000000	-18.98528700000000	0.00000000000000	
